<svg xmlns="http://www.w3.org/2000/svg" viewBox="0 0 800 240" fill="none">
  <g stroke="#243044" stroke-linecap="round" stroke-linejoin="round">
    <g>
      <path fill="#FFD43B" stroke-width="8" d="M106 20C73 34 48 72 50 116c2 39 24 62 58 62 35 0 57-24 57-61 0-40-23-77-59-97Z"/>
      <path d="M150 122c10 3 19 8 26 14M147 143c10 2 19 6 27 12" stroke-width="14"/>
      <path d="M150 122c10 3 19 8 26 14M147 143c10 2 19 6 27 12" stroke="#FFD43B" stroke-width="7"/>
      <circle cx="179" cy="139" r="9" fill="#FFD43B" stroke-width="7"/>
      <circle cx="177" cy="158" r="9" fill="#FFD43B" stroke-width="7"/>
      <path d="M82 171 67 201M128 171l18 29" stroke-width="14"/>
      <path d="M82 171 67 201M128 171l18 29" stroke="#FFD43B" stroke-width="7"/>
      <path fill="#F2A51A" stroke-width="7" d="M47 207c12-10 28-10 38 0-10 9-26 11-38 0ZM135 206c11-10 27-10 37 0-9 9-25 11-37 0Z"/>
      <ellipse cx="96" cy="91" rx="5" ry="7" fill="#243044" stroke="none"/>
      <ellipse cx="124" cy="91" rx="5" ry="7" fill="#243044" stroke="none"/>
      <path d="M103 111c6 4 13 4 19 0" stroke-width="7"/>
      <circle cx="137" cy="108" r="5" fill="#F45B8C" stroke="none"/>
    </g>
    <g transform="translate(200 0)">
      <path fill="#FFD43B" stroke-width="8" d="M111 23C76 34 50 72 52 116c2 39 24 61 58 61 35 0 57-25 56-62-1-39-22-73-55-92Z"/>
      <path d="M151 120c11 4 20 9 26 15M148 142c11 2 20 6 27 12" stroke-width="14"/>
      <path d="M151 120c11 4 20 9 26 15M148 142c11 2 20 6 27 12" stroke="#FFD43B" stroke-width="7"/>
      <circle cx="180" cy="138" r="9" fill="#FFD43B" stroke-width="7"/>
      <circle cx="178" cy="157" r="9" fill="#FFD43B" stroke-width="7"/>
      <path d="M86 171 76 199M130 170l23 24" stroke-width="14"/>
      <path d="M86 171 76 199M130 170l23 24" stroke="#FFD43B" stroke-width="7"/>
      <path fill="#F2A51A" stroke-width="7" d="M58 205c11-10 27-10 37 0-9 9-25 11-37 0ZM143 199c11-10 27-10 37 0-9 9-25 11-37 0Z"/>
      <ellipse cx="101" cy="91" rx="5" ry="7" fill="#243044" stroke="none"/>
      <ellipse cx="130" cy="90" rx="5" ry="7" fill="#243044" stroke="none"/>
      <path d="M109 110c6 4 13 4 19 0" stroke-width="7"/>
      <circle cx="141" cy="106" r="5" fill="#F45B8C" stroke="none"/>
    </g>
    <g transform="translate(400 0)">
      <path fill="#FFD43B" stroke-width="8" d="M108 19C75 33 51 68 53 110c2 38 24 60 57 60 34 0 56-23 56-59 0-38-22-73-58-92Z"/>
      <path d="M151 113c12 3 22 8 29 13M147 135c12 1 23 5 31 9" stroke-width="14"/>
      <path d="M151 113c12 3 22 8 29 13M147 135c12 1 23 5 31 9" stroke="#FFD43B" stroke-width="7"/>
      <circle cx="183" cy="128" r="9" fill="#FFD43B" stroke-width="7"/>
      <circle cx="181" cy="147" r="9" fill="#FFD43B" stroke-width="7"/>
      <path d="M89 164 69 195M131 164l33 12" stroke-width="14"/>
      <path d="M89 164 69 195M131 164l33 12" stroke="#FFD43B" stroke-width="7"/>
      <path fill="#F2A51A" stroke-width="7" d="M50 201c11-10 27-10 37 0-9 9-25 11-37 0ZM157 170c12-7 27-3 34 8-11 6-27 6-34-8Z"/>
      <ellipse cx="98" cy="86" rx="5" ry="7" fill="#243044" stroke="none"/>
      <ellipse cx="127" cy="85" rx="5" ry="7" fill="#243044" stroke="none"/>
      <path d="M105 105c7 6 15 6 22 0" stroke-width="7"/>
      <circle cx="139" cy="101" r="5" fill="#F45B8C" stroke="none"/>
    </g>
    <g transform="translate(600 0) rotate(-8 108 130)">
      <path fill="#FFD43B" stroke-width="8" d="M108 38C77 49 57 79 59 119c2 35 20 56 49 57 30 1 50-20 52-55 2-37-18-68-52-83Z"/>
      <path d="M70 121 47 145M149 108l27-34" stroke-width="14"/>
      <path d="M70 121 47 145M149 108l27-34" stroke="#FFD43B" stroke-width="7"/>
      <circle cx="43" cy="149" r="9" fill="#FFD43B" stroke-width="7"/>
      <circle cx="181" cy="69" r="9" fill="#FFD43B" stroke-width="7"/>
      <path d="M89 171 59 180M123 170l-24 20" stroke-width="14"/>
      <path d="M89 171 59 180M123 170l-24 20" stroke="#FFD43B" stroke-width="7"/>
      <path fill="#F2A51A" stroke-width="7" d="M40 184c11-9 27-7 36 2-10 8-25 8-36-2ZM83 194c11-9 27-8 36 1-9 9-25 10-36-1Z"/>
      <ellipse cx="95" cy="101" rx="5" ry="7" fill="#243044" stroke="none"/>
      <ellipse cx="121" cy="99" rx="5" ry="7" fill="#243044" stroke="none"/>
      <path d="M97 121c7 6 15 6 22 0" stroke-width="7"/>
      <circle cx="133" cy="115" r="5" fill="#F45B8C" stroke="none"/>
    </g>
  </g>
</svg>
