<svg xmlns="http://www.w3.org/2000/svg" viewBox="0 0 390 500" fill="none">
  <g stroke="#243044" stroke-width="8" stroke-linecap="round" stroke-linejoin="round">
    <path d="M126 455c-1-39 2-76 8-112" stroke="#2F9E57" stroke-width="14"/>
    <path fill="#2F9E57" d="M123 416c-35 5-58-8-72-35 32-4 56 9 72 35ZM138 405c30-5 52-20 63-47-30 2-52 17-63 47Z"/>
    <path fill="#F45B8C" d="M135 337c-56 20-96 12-113-18 15-23 38-34 70-30-25-19-34-43-28-70 29-12 56-1 78 31-2-34 10-59 35-74 29 14 40 41 31 80 25-22 53-28 82-17 4 31-17 58-62 78 32 5 50 22 55 49-25 20-57 16-96-11-12 30-32 47-60 49-22-23-20-46 8-67Z"/>
  </g>
</svg>
