<svg xmlns="http://www.w3.org/2000/svg" viewBox="0 0 390 500" fill="none">
  <g stroke="#243044" stroke-width="8" stroke-linecap="round" stroke-linejoin="round">
    <path d="M126 448c-2-40 1-75 8-111" stroke="#2F9E57" stroke-width="14"/>
    <path fill="#2F9E57" d="M123 410c-34 4-55-8-68-33 31-4 53 8 68 33ZM138 399c29-5 49-19 59-43-29 1-50 15-59 43Z"/>
    <path fill="#F45B8C" d="M135 331c-39-39-36-91 8-129 4-6 9-8 16-8h20c8 0 12 4 13 11 14 44-7 95-57 126Z"/>
    <path fill="#F45B8C" d="M135 337c-58 3-91-17-96-51 22-8 43-5 63 9-13-22-13-44 0-65 32 9 49 35 39 77 21-22 46-31 72-25-2 36-28 56-78 55Z"/>
    <circle cx="134" cy="331" r="25" fill="#FFF1B8"/>
  </g>
</svg>
