<svg xmlns="http://www.w3.org/2000/svg" viewBox="0 0 390 500" fill="none">
  <g stroke="#243044" stroke-width="8" stroke-linecap="round" stroke-linejoin="round">
    <path d="M126 448c-2-35 2-63 8-89" stroke="#2F9E57" stroke-width="14"/>
    <path fill="#2F9E57" d="M124 410c-32 5-51-6-63-29 28-4 49 7 63 29ZM136 397c27-3 46-15 56-38-27 0-47 13-56 38Z"/>
    <path fill="#F45B8C" d="M134 360c-35-22-46-61-23-88 14 9 22 20 24 34 4-16 13-29 28-38 20 29 9 66-29 92Z"/>
    <path d="M135 307v42"/>
  </g>
</svg>
