<svg xmlns="http://www.w3.org/2000/svg" viewBox="0 0 180 220" fill="none">
  <g stroke="#243044" stroke-width="8" stroke-linecap="round" stroke-linejoin="round">
    <path d="M89 53c2-20 10-32 24-39" stroke-width="14"/>
    <path d="M89 53c2-20 10-32 24-39" stroke="#2F9E57" stroke-width="7"/>
    <path fill="#2F9E57" d="M111 15c8-14 22-18 38-12-2 17-14 26-38 12Z"/>
    <path d="m141 7-25 7" stroke-width="5"/>
    <path fill="#F04D3A" d="M89 48c-36 1-63 24-67 67-5 51 20 78 67 78 48 0 74-25 70-73-4-45-30-73-70-72Z"/>
    <path d="M31 116 8 95M149 102l23-19"/>
    <circle cx="8" cy="95" r="7" fill="#F04D3A"/>
    <circle cx="172" cy="83" r="7" fill="#F04D3A"/>
    <path d="M63 191l-8 17M117 191l10 17"/>
    <path fill="#F04D3A" d="M42 211c9-8 22-7 29 1-8 7-20 8-29-1ZM114 211c9-8 22-7 29 1-8 7-20 8-29-1Z"/>
    <circle cx="73" cy="105" r="4" fill="#243044" stroke="none"/>
    <circle cx="103" cy="104" r="4" fill="#243044" stroke="none"/>
    <path d="M78 125c7 5 15 5 22 0"/>
  </g>
</svg>
