<svg xmlns="http://www.w3.org/2000/svg" viewBox="0 0 390 500" fill="none">
  <g transform="rotate(-12 195 155)" stroke="#243044" stroke-width="8" stroke-linecap="round" stroke-linejoin="round">
    <path d="M183 143c-6-41 49-52 61-10" stroke-width="18"/>
    <path d="M183 143c-6-41 49-52 61-10" stroke="#89E1F5" stroke-width="9"/>
    <path fill="#45B7E8" d="M175 137h69l-5 69c-20 11-42 11-62 0l-2-69Z"/>
    <path fill="#45B7E8" d="m190 190-8 41-22-5 17-35 13-1Z"/>
    <path fill="#89E1F5" d="m158 223 28 7c6 2 7 8 1 12l-32-9 3-10Z"/>
    <path d="m164 229 2 6m7-4 2 6m7-4 2 6" stroke-width="3"/>
    <path fill="#89E1F5" d="M194 119h31l4 18h-39l4-18Z"/>
    <path fill="#DDF7FF" d="M211 166c12 13 12 25 0 35-12-10-12-22 0-35Z"/>
  </g>
  <path d="M190 242c-20 2-39 10-55 23" stroke="#45B7E8" stroke-width="9" stroke-linecap="round"/>
  <path fill="#45B7E8" d="M135 266c13 14 13 27 0 38-13-11-13-24 0-38Z"/>
</svg>
