<svg xmlns="http://www.w3.org/2000/svg" width="64" height="64" viewBox="0 0 64 64" role="img" aria-label="64 pixel silhouette audit of the running root-ring gag">
  <rect width="64" height="64" fill="#fff"/>
  <!-- Five low root-rings; their holes remain visible at 64 px. -->
  <g fill="#000" stroke="#000" stroke-linecap="round" stroke-linejoin="round">
    <path fill-rule="evenodd" d="M2 43a6 9 0 1 1 12 0 6 9 0 1 1-12 0Zm3 0a3 6 0 1 0 6 0 3 6 0 1 0-6 0Z"/>
    <path d="M5 51l-2 3m8-3 2 3" fill="none" stroke-width="2"/>
    <path fill-rule="evenodd" d="M14 42a6 9 0 1 1 12 0 6 9 0 1 1-12 0Zm3 0a3 6 0 1 0 6 0 3 6 0 1 0-6 0Z"/>
    <path d="M17 50l-2 3m8-3 2 3" fill="none" stroke-width="2"/>
    <path fill-rule="evenodd" d="M27 41a6 9 0 1 1 12 0 6 9 0 1 1-12 0Zm3 0a3 6 0 1 0 6 0 3 6 0 1 0-6 0Z"/>
    <path d="M30 49l-2 3m8-3 2 3" fill="none" stroke-width="2"/>
    <path fill-rule="evenodd" d="M39 43a6 9 0 1 1 12 0 6 9 0 1 1-12 0Zm3 0a3 6 0 1 0 6 0 3 6 0 1 0-6 0Z"/>
    <path d="M42 51l-2 3m8-3 2 3" fill="none" stroke-width="2"/>
    <path fill-rule="evenodd" d="M51 44a6 9 0 1 1 12 0 6 9 0 1 1-12 0Zm3 0a3 6 0 1 0 6 0 3 6 0 1 0-6 0Z"/>
    <path d="M54 52l-2 3m8-3 2 3" fill="none" stroke-width="2"/>
    <!-- Companion body and limbs, intentionally merged with the middle ring in the tested frame. -->
    <path d="M27 11c-6 2-9 10-8 18 0 8 5 13 10 14 6 2 13-1 15-7 2-6-1-10-5-12 1-6-5-15-12-13Z"/>
    <path d="M25 12l-2-6m8 5 3-6M21 25l-8-3m29 5 8-4M27 39l-9 8m20-8 9 7" fill="none" stroke-width="3"/>
  </g>
</svg>
