<svg xmlns="http://www.w3.org/2000/svg" viewBox="0 0 800 240" fill="none">
  <g stroke="#243044" stroke-width="8" stroke-linecap="round" stroke-linejoin="round">
    <g>
      <path fill="#FFD43B" d="M108 20C73 32 45 72 48 119c2 36 25 59 61 58 34-1 56-24 56-59 0-39-23-76-57-98Z"/>
      <path d="M149 103l37 9M149 121l37-3"/>
      <circle cx="190" cy="113" r="8" fill="#FFD43B"/>
      <path d="M78 168l-18 38M125 171l24 35"/>
      <path fill="#FFD43B" d="M44 209c10-8 23-7 29 1-8 7-20 9-29-1ZM139 210c9-9 23-9 30-1-7 8-20 10-30 1Z"/>
      <circle cx="99" cy="91" r="4" fill="#243044" stroke="none"/>
      <circle cx="126" cy="91" r="4" fill="#243044" stroke="none"/>
      <path d="M108 108h12"/>
    </g>
    <g transform="translate(200 0)">
      <path fill="#FFD43B" d="M110 24C73 34 47 73 50 119c2 36 27 58 62 56 34-2 55-26 53-61-2-38-23-71-55-90Z"/>
      <path d="M151 100l36 8M151 119l36-2"/>
      <circle cx="191" cy="109" r="8" fill="#FFD43B"/>
      <path d="M84 168l11 28M130 168l24 22"/>
      <path fill="#FFD43B" d="M83 203c8-8 20-7 27 0-6 8-18 10-27 0ZM147 194c8-8 20-8 27-1-7 8-19 10-27 1Z"/>
      <circle cx="102" cy="91" r="4" fill="#243044" stroke="none"/>
      <circle cx="128" cy="90" r="4" fill="#243044" stroke="none"/>
      <path d="M110 108h12"/>
    </g>
    <g transform="translate(400 0) rotate(154 105 118)">
      <path fill="#FFD43B" d="M108 20C73 32 45 72 48 119c2 36 25 59 61 58 34-1 56-24 56-59 0-39-23-76-57-98Z"/>
      <path d="M149 103l37 9M149 121l37-3"/>
      <circle cx="190" cy="113" r="8" fill="#FFD43B"/>
      <path d="M78 168l-18 38M125 171l24 35"/>
      <path fill="#FFD43B" d="M44 209c10-8 23-7 29 1-8 7-20 9-29-1ZM139 210c9-9 23-9 30-1-7 8-20 10-30 1Z"/>
      <circle cx="99" cy="91" r="4" fill="#243044" stroke="none"/>
      <circle cx="126" cy="91" r="4" fill="#243044" stroke="none"/>
      <circle cx="114" cy="109" r="5" fill="#243044" stroke="none"/>
    </g>
    <g transform="translate(600 0)">
      <path fill="#FFD43B" d="M104 21C72 35 52 71 55 113c3 38 22 61 52 62 31 1 52-22 54-59 2-39-20-76-57-95Z"/>
      <path d="M66 111L35 79M150 106l27-34"/>
      <circle cx="31" cy="74" r="8" fill="#FFD43B"/>
      <circle cx="181" cy="67" r="8" fill="#FFD43B"/>
      <path d="M88 171l-25 29M124 172l28 27"/>
      <path fill="#FFD43B" d="M49 205c9-9 23-9 30-1-7 8-20 10-30 1ZM140 204c9-9 23-9 30-1-7 8-20 10-30 1Z"/>
      <circle cx="93" cy="91" r="4" fill="#243044" stroke="none"/>
      <circle cx="119" cy="91" r="4" fill="#243044" stroke="none"/>
      <path d="M97 110c6 5 14 5 20 0"/>
    </g>
  </g>
</svg>
