<svg xmlns="http://www.w3.org/2000/svg" viewBox="0 0 390 500" fill="none">
  <g stroke="#243044" stroke-width="8" stroke-linecap="round" stroke-linejoin="round">
    <path d="M126 448c-2-35 2-63 8-89" stroke="#2F9E57" stroke-width="14"/>
    <path fill="#2F9E57" d="M124 410c-32 5-51-6-63-29 28-4 49 7 63 29ZM136 397c27-3 46-15 56-38-27 0-47 13-56 38Z"/>
    <path fill="#F45B8C" d="M134 360c-43-12-63-46-48-79 18 4 32 14 41 29-1-18 6-34 22-48 27 24 24 64-15 98Z"/>
    <path d="M129 312l5 37"/>
  </g>
</svg>
